<svg width="36" height="36" viewBox="0 0 36 36" fill="none" xmlns="http://www.w3.org/2000/svg">
<path d="M10.9853 20.7021C13.3668 20.7024 15.2977 22.6332 15.2978 25.0146V30.9375C15.2978 33.3191 13.3669 35.2498 10.9853 35.25H5.0625C3.91542 35.25 2.81516 34.7934 2.00586 33.9805C1.19657 33.1676 0.744899 32.065 0.749997 30.918V25.0146C0.750186 22.6331 2.68089 20.7021 5.0625 20.7021H10.9853ZM30.9375 20.7021C33.3191 20.7022 35.2498 22.6331 35.25 25.0146V30.918C35.2551 32.065 34.8025 33.1676 33.9932 33.9805C33.1839 34.7931 32.0844 35.25 30.9375 35.25H25.0146C23.8678 35.2499 22.7682 34.7931 21.959 33.9805C21.1497 33.1676 20.697 32.065 20.7021 30.918V25.0146C20.7023 22.6332 22.6332 20.7023 25.0146 20.7021H30.9375ZM5.0625 23.5771C4.27302 23.5875 3.6355 24.2252 3.625 25.0146V30.918C3.625 31.7119 4.26859 32.3555 5.0625 32.3555H10.9853C11.7791 32.3553 12.4228 31.7117 12.4228 30.918V25.0146C12.4123 24.2253 11.7746 23.5877 10.9853 23.5771H5.0625ZM25.0146 23.5771C24.2253 23.5876 23.5876 24.2253 23.5771 25.0146V30.918C23.5771 31.7118 24.2209 32.3553 25.0146 32.3555H30.9375C31.7314 32.3554 32.375 31.7119 32.375 30.918V25.0146C32.3645 24.2252 31.727 23.5875 30.9375 23.5771H25.0146ZM10.9853 0.75C12.1322 0.750093 13.2318 1.20687 14.041 2.01953C14.8503 2.83243 15.3029 3.93497 15.2978 5.08203V10.9854C15.2977 13.3668 13.3668 15.2976 10.9853 15.2979H5.0625C2.68089 15.2979 0.750187 13.3669 0.749997 10.9854V5.08203C0.744899 3.93498 1.19657 2.83243 2.00586 2.01953C2.81516 1.20663 3.91542 0.749989 5.0625 0.75H10.9853ZM30.9375 0.75C32.0846 0.749989 33.1848 1.20663 33.9941 2.01953C34.8034 2.83243 35.2551 3.93499 35.25 5.08203V10.9854C35.2498 13.3669 33.3191 15.2978 30.9375 15.2979H25.0146C22.6332 15.2977 20.7023 13.3668 20.7021 10.9854V5.0625C20.7021 2.68089 22.6331 0.750189 25.0146 0.75H30.9375ZM5.0625 3.64453C4.26859 3.64453 3.625 4.28812 3.625 5.08203V10.9658C3.63532 11.7554 4.2729 12.393 5.0625 12.4033H10.9853C11.7748 12.3928 12.4125 11.7553 12.4228 10.9658V5.08203C12.4228 4.28825 11.7791 3.64474 10.9853 3.64453H5.0625ZM25.0146 3.64453C24.2209 3.64472 23.5771 4.28824 23.5771 5.08203V10.9658C23.5875 11.7553 24.2252 12.3928 25.0146 12.4033H30.9375C31.7271 12.393 32.3647 11.7554 32.375 10.9658V5.08203C32.375 4.28812 31.7314 3.64453 30.9375 3.64453H25.0146Z" fill="white"/>
</svg>
