<svg width="38" height="38" viewBox="0 0 38 38" fill="none" xmlns="http://www.w3.org/2000/svg">
<path d="M20.8535 0C22.1661 0 23.2304 1.06437 23.2305 2.37695C23.2253 3.01393 23.4763 3.62672 23.9268 4.07715C24.3771 4.5273 24.9892 4.77757 25.626 4.77246C26.2564 4.7788 26.8612 4.52193 27.2939 4.06348C28.232 3.14828 29.729 3.14818 30.667 4.06348L33.542 6.93848C34.4574 7.87651 34.4572 9.37339 33.542 10.3115C32.8596 10.989 32.6525 12.0118 33.0176 12.9014C33.3827 13.7908 34.2485 14.3722 35.21 14.375C36.5148 14.3858 37.5674 15.447 37.5674 16.752V20.8535C37.5674 22.1661 36.503 23.2304 35.1904 23.2305C34.2288 23.2333 33.3631 23.8155 32.998 24.7051C32.6333 25.5945 32.8402 26.6166 33.5225 27.2939C34.4379 28.2321 34.4379 29.7289 33.5225 30.667L30.6475 33.542C29.7093 34.4573 28.2125 34.4574 27.2744 33.542C26.8418 33.0837 26.2376 32.8268 25.6074 32.833C24.9738 32.8279 24.3639 33.0762 23.9141 33.5225C23.4643 33.9687 23.2109 34.5764 23.2109 35.21C23.2107 36.5222 22.1472 37.5857 20.835 37.5859H16.7324C15.4202 37.5857 14.3567 36.5222 14.3564 35.21C14.3565 34.5764 14.1031 33.9687 13.6533 33.5225C13.2035 33.0762 12.5936 32.8279 11.96 32.833C11.3297 32.8268 10.7256 33.0837 10.293 33.542C9.35493 34.4574 7.85805 34.4572 6.91992 33.542L4.04492 30.667C3.12946 29.7289 3.12946 28.2321 4.04492 27.2939C4.72724 26.6165 4.93331 25.5946 4.56836 24.7051C4.20329 23.8155 3.33854 23.2333 2.37695 23.2305C1.74664 23.2305 1.14199 22.9799 0.696289 22.5342C0.250634 22.0885 0 21.4838 0 20.8535V16.752C2.064e-05 15.4394 1.06439 14.375 2.37695 14.375C3.33836 14.3722 4.20317 13.7907 4.56836 12.9014C4.93343 12.0118 4.72735 10.989 4.04492 10.3115C3.12949 9.37341 3.12947 7.87658 4.04492 6.93848L6.91992 4.06348C7.85805 3.14832 9.35496 3.14813 10.293 4.06348C10.7256 4.52184 11.3297 4.7787 11.96 4.77246C12.5969 4.77762 13.2097 4.52748 13.6602 4.07715C14.1106 3.62672 14.3616 3.01393 14.3564 2.37695C14.3565 1.06451 15.42 0.000216959 16.7324 0H20.8535ZM17.2119 2.875C16.9548 5.58248 14.6796 7.64975 11.96 7.64746C10.7409 7.6503 9.55963 7.22314 8.625 6.44043L6.47852 8.64453C7.71382 10.149 8.02266 12.21 7.2832 14.0107C6.54432 15.8175 4.85854 17.0608 2.91406 17.2314V20.374C4.85855 20.5447 6.54432 21.788 7.2832 23.5947C8.00699 25.4058 7.67573 27.4678 6.4209 28.9609L8.625 31.165C9.55962 30.3823 10.7409 29.9552 11.96 29.958C14.6762 29.9647 16.9462 32.0273 17.2119 34.7305H20.3555C20.5951 32.0143 22.8808 29.9375 25.6074 29.958C26.8265 29.9552 28.0078 30.3823 28.9424 31.165L31.0889 28.9609C29.8536 27.4565 29.5438 25.3954 30.2832 23.5947C31.0314 21.7706 32.745 20.5238 34.7109 20.374L34.6533 17.2314C32.7088 17.0608 31.0221 15.8175 30.2832 14.0107C29.5597 12.1998 29.8918 10.1375 31.1465 8.64453L28.9424 6.44043C28.0078 7.22313 26.8265 7.65028 25.6074 7.64746C22.8912 7.64081 20.6212 5.57818 20.3555 2.875H17.2119ZM18.7832 12.1709C20.5419 12.1709 22.229 12.8698 23.4727 14.1133C24.7163 15.3569 25.415 17.0439 25.415 18.8027C25.415 22.4653 22.4458 25.4346 18.7832 25.4346C15.1208 25.4343 12.1523 22.4652 12.1523 18.8027C12.1524 15.1404 15.1209 12.1711 18.7832 12.1709ZM18.7832 14.9697C16.6664 14.97 14.9502 16.6858 14.9502 18.8027C14.9502 20.9197 16.6663 22.6355 18.7832 22.6357C20.9003 22.6357 22.6172 20.9198 22.6172 18.8027C22.6171 16.6857 20.9003 14.9697 18.7832 14.9697Z" fill="black"/>
</svg>
