<svg width="42" height="42" viewBox="0 0 42 42" fill="none" xmlns="http://www.w3.org/2000/svg">
<mask id="path-1-outside-1_15_248" maskUnits="userSpaceOnUse" x="0" y="0" width="42" height="42" fill="black">
<rect fill="white" width="42" height="42"/>
<path d="M23.8574 1C27.7958 1.00031 31 4.84597 31 9.57227C30.9999 12.9392 29.3755 15.7995 26.7285 17.1602L27.3408 37.4814C27.3691 38.4044 27.0218 39.3001 26.3789 39.9629C25.736 40.6257 24.852 41 23.9287 41H23.7861C22.8622 41.0011 21.9763 40.6267 21.333 39.9639C20.7299 39.3424 20.3874 38.5169 20.3701 37.6553L20.3711 37.4824L20.9854 17.1602C18.3385 15.7994 16.7148 12.9384 16.7148 9.57129C16.7149 4.99247 19.7215 1.24061 23.4902 1.01074L23.8574 1ZM40.2852 1C40.4744 1 40.657 1.07504 40.791 1.20898C40.9246 1.34297 41 1.52558 41 1.71484V27.4287C40.9999 27.6178 40.9245 27.7997 40.791 27.9336C40.657 28.0676 40.4744 28.1426 40.2852 28.1426H39.6123L40.123 37.3955C40.1752 38.3326 39.8391 39.2497 39.1943 39.9316C38.5492 40.6133 37.6524 41 36.7139 41C35.7751 41.0011 34.8769 40.6142 34.2314 39.9326C33.6266 39.2933 33.2932 38.4469 33.2969 37.5713L33.3018 37.3955L33.8164 28.1426H33.1426C32.9534 28.1425 32.7716 28.0675 32.6377 27.9336C32.5038 27.7997 32.4288 27.6179 32.4287 27.4287V18.8574C32.4287 3.12173 36.0393 1 39.5713 1H40.2852ZM13.1426 1C13.7107 1 14.2557 1.22603 14.6572 1.62793C15.0591 2.02947 15.2851 2.57415 15.2852 3.14258V17.4287C15.2851 17.6182 15.2101 17.7997 15.0762 17.9336C14.9422 18.0675 14.7605 18.1425 14.5713 18.1426H11.0225L11.627 37.4785C11.6555 38.4019 11.3087 39.2975 10.666 39.9609C10.0228 40.6244 9.13829 40.999 8.21387 40.999H8.07129C7.14723 40.999 6.26211 40.6244 5.61914 39.9609C4.9765 39.2976 4.62925 38.4019 4.6582 37.4785L5.2627 18.1426H1.71387C1.52441 18.1425 1.34286 18.0675 1.20898 17.9336C1.07513 17.7997 1.00007 17.6182 1 17.4287V3.14258C1.00009 2.37715 1.40859 1.66987 2.07129 1.28711C2.73432 0.904347 3.55075 0.904423 4.21387 1.28711C4.87698 1.66989 5.28604 2.37709 5.28613 3.14258V11H6V3.14258C6.00009 2.37718 6.40834 1.66988 7.07129 1.28711C7.73429 0.904363 8.55076 0.904472 9.21387 1.28711C9.87663 1.66989 10.286 2.37709 10.2861 3.14258V11H11V3.14258C11.0001 2.57423 11.2261 2.02945 11.6279 1.62793C11.9792 1.27634 12.4401 1.05954 12.9307 1.01074L13.1426 1ZM6.69238 18.1426L6.08691 37.5234C6.07031 38.0605 6.27148 38.5809 6.64551 38.9668C7.01943 39.3528 7.53396 39.5709 8.07129 39.5713H8.21387C8.75249 39.5738 9.26902 39.3557 9.64258 38.9678C10.0172 38.5822 10.2183 38.0607 10.1992 37.5234L9.59375 18.1426H6.69238ZM23.8574 2.42871C20.7068 2.42871 18.1426 5.6328 18.1426 9.57129C18.1426 12.5433 19.6203 15.03 22 16.0586C22.2677 16.1756 22.4374 16.4432 22.4287 16.7354L21.8008 37.5254C21.7849 38.062 21.9878 38.5825 22.3613 38.9678C22.7352 39.3532 23.2493 39.5709 23.7861 39.5713H23.9287C24.4659 39.5716 24.9803 39.3542 25.3545 38.9688C25.7291 38.5835 25.932 38.0627 25.916 37.5254L25.3066 17.4277H23.8574V16H25.8262C28.1367 14.9413 29.5713 12.4955 29.5713 9.57129C29.5713 5.63288 27.0078 2.42899 23.8574 2.42871ZM34.7314 37.4756C34.7014 38.0206 34.8966 38.5536 35.2715 38.9502C35.6467 39.3464 36.1685 39.5713 36.7139 39.5713C37.2615 39.5741 37.7859 39.3493 38.1602 38.9502C38.5372 38.5551 38.7323 38.0206 38.7002 37.4756L38.1816 28.1416H35.2471L34.7314 37.4756ZM39.5713 2.42871C35.5661 2.42871 33.8565 7.34114 33.8564 18.8564V26.7139H39.5713V2.42871ZM37.4287 21.7139H36V18.1426H37.4287V21.7139ZM2.42871 12.4287V16.7148H13.8574V12.4287H2.42871ZM37.4287 16.7139H36V15.2852H37.4287V16.7139ZM28.1436 9.57227C28.1434 13.607 25.6254 14.499 25.5127 14.5352L25.0498 13.1836C25.1258 13.1546 26.7147 12.5243 26.7148 9.57227H28.1436ZM37.4287 13.8574H36V12.4287H37.4287V13.8574ZM3.14258 2.42871C2.74828 2.42884 2.42885 2.74828 2.42871 3.14258V11H3.85742V3.14258C3.85728 2.7482 3.53698 2.42871 3.14258 2.42871ZM8.14258 2.42871C7.74828 2.42884 7.42885 2.74828 7.42871 3.14258V11H8.85742V3.14258C8.85728 2.7482 8.53698 2.42871 8.14258 2.42871ZM13.1426 2.42871C12.7482 2.4289 12.4287 2.74917 12.4287 3.14355V11H13.8574V3.14355C13.8574 2.74906 13.5371 2.42871 13.1426 2.42871Z"/>
</mask>
<path d="M23.8574 1C27.7958 1.00031 31 4.84597 31 9.57227C30.9999 12.9392 29.3755 15.7995 26.7285 17.1602L27.3408 37.4814C27.3691 38.4044 27.0218 39.3001 26.3789 39.9629C25.736 40.6257 24.852 41 23.9287 41H23.7861C22.8622 41.0011 21.9763 40.6267 21.333 39.9639C20.7299 39.3424 20.3874 38.5169 20.3701 37.6553L20.3711 37.4824L20.9854 17.1602C18.3385 15.7994 16.7148 12.9384 16.7148 9.57129C16.7149 4.99247 19.7215 1.24061 23.4902 1.01074L23.8574 1ZM40.2852 1C40.4744 1 40.657 1.07504 40.791 1.20898C40.9246 1.34297 41 1.52558 41 1.71484V27.4287C40.9999 27.6178 40.9245 27.7997 40.791 27.9336C40.657 28.0676 40.4744 28.1426 40.2852 28.1426H39.6123L40.123 37.3955C40.1752 38.3326 39.8391 39.2497 39.1943 39.9316C38.5492 40.6133 37.6524 41 36.7139 41C35.7751 41.0011 34.8769 40.6142 34.2314 39.9326C33.6266 39.2933 33.2932 38.4469 33.2969 37.5713L33.3018 37.3955L33.8164 28.1426H33.1426C32.9534 28.1425 32.7716 28.0675 32.6377 27.9336C32.5038 27.7997 32.4288 27.6179 32.4287 27.4287V18.8574C32.4287 3.12173 36.0393 1 39.5713 1H40.2852ZM13.1426 1C13.7107 1 14.2557 1.22603 14.6572 1.62793C15.0591 2.02947 15.2851 2.57415 15.2852 3.14258V17.4287C15.2851 17.6182 15.2101 17.7997 15.0762 17.9336C14.9422 18.0675 14.7605 18.1425 14.5713 18.1426H11.0225L11.627 37.4785C11.6555 38.4019 11.3087 39.2975 10.666 39.9609C10.0228 40.6244 9.13829 40.999 8.21387 40.999H8.07129C7.14723 40.999 6.26211 40.6244 5.61914 39.9609C4.9765 39.2976 4.62925 38.4019 4.6582 37.4785L5.2627 18.1426H1.71387C1.52441 18.1425 1.34286 18.0675 1.20898 17.9336C1.07513 17.7997 1.00007 17.6182 1 17.4287V3.14258C1.00009 2.37715 1.40859 1.66987 2.07129 1.28711C2.73432 0.904347 3.55075 0.904423 4.21387 1.28711C4.87698 1.66989 5.28604 2.37709 5.28613 3.14258V11H6V3.14258C6.00009 2.37718 6.40834 1.66988 7.07129 1.28711C7.73429 0.904363 8.55076 0.904472 9.21387 1.28711C9.87663 1.66989 10.286 2.37709 10.2861 3.14258V11H11V3.14258C11.0001 2.57423 11.2261 2.02945 11.6279 1.62793C11.9792 1.27634 12.4401 1.05954 12.9307 1.01074L13.1426 1ZM6.69238 18.1426L6.08691 37.5234C6.07031 38.0605 6.27148 38.5809 6.64551 38.9668C7.01943 39.3528 7.53396 39.5709 8.07129 39.5713H8.21387C8.75249 39.5738 9.26902 39.3557 9.64258 38.9678C10.0172 38.5822 10.2183 38.0607 10.1992 37.5234L9.59375 18.1426H6.69238ZM23.8574 2.42871C20.7068 2.42871 18.1426 5.6328 18.1426 9.57129C18.1426 12.5433 19.6203 15.03 22 16.0586C22.2677 16.1756 22.4374 16.4432 22.4287 16.7354L21.8008 37.5254C21.7849 38.062 21.9878 38.5825 22.3613 38.9678C22.7352 39.3532 23.2493 39.5709 23.7861 39.5713H23.9287C24.4659 39.5716 24.9803 39.3542 25.3545 38.9688C25.7291 38.5835 25.932 38.0627 25.916 37.5254L25.3066 17.4277H23.8574V16H25.8262C28.1367 14.9413 29.5713 12.4955 29.5713 9.57129C29.5713 5.63288 27.0078 2.42899 23.8574 2.42871ZM34.7314 37.4756C34.7014 38.0206 34.8966 38.5536 35.2715 38.9502C35.6467 39.3464 36.1685 39.5713 36.7139 39.5713C37.2615 39.5741 37.7859 39.3493 38.1602 38.9502C38.5372 38.5551 38.7323 38.0206 38.7002 37.4756L38.1816 28.1416H35.2471L34.7314 37.4756ZM39.5713 2.42871C35.5661 2.42871 33.8565 7.34114 33.8564 18.8564V26.7139H39.5713V2.42871ZM37.4287 21.7139H36V18.1426H37.4287V21.7139ZM2.42871 12.4287V16.7148H13.8574V12.4287H2.42871ZM37.4287 16.7139H36V15.2852H37.4287V16.7139ZM28.1436 9.57227C28.1434 13.607 25.6254 14.499 25.5127 14.5352L25.0498 13.1836C25.1258 13.1546 26.7147 12.5243 26.7148 9.57227H28.1436ZM37.4287 13.8574H36V12.4287H37.4287V13.8574ZM3.14258 2.42871C2.74828 2.42884 2.42885 2.74828 2.42871 3.14258V11H3.85742V3.14258C3.85728 2.7482 3.53698 2.42871 3.14258 2.42871ZM8.14258 2.42871C7.74828 2.42884 7.42885 2.74828 7.42871 3.14258V11H8.85742V3.14258C8.85728 2.7482 8.53698 2.42871 8.14258 2.42871ZM13.1426 2.42871C12.7482 2.4289 12.4287 2.74917 12.4287 3.14355V11H13.8574V3.14355C13.8574 2.74906 13.5371 2.42871 13.1426 2.42871Z" fill="black"/>
<path d="M23.8574 1L23.8575 0.599828L23.8457 0.600171L23.8574 1ZM31 9.57227L31.4 9.57228V9.57227H31ZM26.7285 17.1602L26.5456 16.8044L26.3211 16.9198L26.3287 17.1722L26.7285 17.1602ZM27.3408 37.4814L26.941 37.4935L26.941 37.4937L27.3408 37.4814ZM26.3789 39.9629L26.666 40.2414L26.666 40.2414L26.3789 39.9629ZM23.9287 41V41.4H23.9287L23.9287 41ZM23.7861 41V40.6H23.7857L23.7861 41ZM21.333 39.9639L21.0459 40.2424L21.046 40.2425L21.333 39.9639ZM20.3701 37.6553L19.97 37.653L19.9702 37.6633L20.3701 37.6553ZM20.3711 37.4824L19.9712 37.4703L19.9711 37.4802L20.3711 37.4824ZM20.9854 17.1602L21.3852 17.1722L21.3928 16.9199L21.1682 16.8044L20.9854 17.1602ZM16.7148 9.57129L16.3148 9.57128V9.57129H16.7148ZM23.4902 1.01074L23.4785 0.610713L23.4659 0.611484L23.4902 1.01074ZM40.791 1.20898L41.0742 0.92652L41.0738 0.926106L40.791 1.20898ZM41 27.4287L41.4 27.4289V27.4287H41ZM40.791 27.9336L41.0739 28.2164L41.0743 28.216L40.791 27.9336ZM39.6123 28.1426V27.7426H39.1896L39.2129 28.1646L39.6123 28.1426ZM40.123 37.3955L39.7237 37.4176L39.7237 37.4177L40.123 37.3955ZM39.1943 39.9316L39.4848 40.2066L39.485 40.2064L39.1943 39.9316ZM36.7139 41V40.6H36.7134L36.7139 41ZM34.2314 39.9326L33.9409 40.2075L33.941 40.2077L34.2314 39.9326ZM33.2969 37.5713L32.8969 37.5602L32.8969 37.5696L33.2969 37.5713ZM33.3018 37.3955L32.9022 37.3733L32.9019 37.3844L33.3018 37.3955ZM33.8164 28.1426L34.2158 28.1648L34.2393 27.7426H33.8164V28.1426ZM33.1426 28.1426L33.1425 28.5426H33.1426V28.1426ZM32.6377 27.9336L32.3548 28.2164L32.3549 28.2165L32.6377 27.9336ZM32.4287 27.4287H32.0287V27.4289L32.4287 27.4287ZM13.1426 1V0.6H13.1324L13.1223 0.600513L13.1426 1ZM14.6572 1.62793L14.3743 1.91066L14.3745 1.91089L14.6572 1.62793ZM15.2852 3.14258H15.6852V3.14253L15.2852 3.14258ZM15.2852 17.4287L15.6852 17.4289V17.4287H15.2852ZM15.0762 17.9336L15.359 18.2165L15.359 18.2164L15.0762 17.9336ZM14.5713 18.1426V18.5426H14.5714L14.5713 18.1426ZM11.0225 18.1426V17.7426H10.6098L10.6227 18.1551L11.0225 18.1426ZM11.627 37.4785L12.0268 37.4661L12.0268 37.466L11.627 37.4785ZM10.666 39.9609L10.9532 40.2394L10.9533 40.2393L10.666 39.9609ZM5.61914 39.9609L5.33185 40.2393L5.33189 40.2393L5.61914 39.9609ZM4.6582 37.4785L5.05801 37.4911L5.05801 37.491L4.6582 37.4785ZM5.2627 18.1426L5.6625 18.1551L5.6754 17.7426H5.2627V18.1426ZM1.71387 18.1426L1.71361 18.5426H1.71387V18.1426ZM1.20898 17.9336L0.926079 18.2164L0.92614 18.2164L1.20898 17.9336ZM1 17.4287H0.6L0.6 17.4289L1 17.4287ZM1 3.14258L0.6 3.14253V3.14258H1ZM2.07129 1.28711L1.8713 0.94069L1.87123 0.940734L2.07129 1.28711ZM4.21387 1.28711L4.41384 0.940682L4.4138 0.940662L4.21387 1.28711ZM5.28613 3.14258H5.68613V3.14253L5.28613 3.14258ZM5.28613 11H4.88613V11.4H5.28613V11ZM6 11V11.4H6.4V11H6ZM6 3.14258L5.6 3.14253V3.14258H6ZM7.07129 1.28711L6.8713 0.94069L6.87128 0.940704L7.07129 1.28711ZM9.21387 1.28711L9.41392 0.940729L9.41379 0.940653L9.21387 1.28711ZM10.2861 3.14258H10.6861V3.14253L10.2861 3.14258ZM10.2861 11H9.88613V11.4H10.2861V11ZM11 11V11.4H11.4V11H11ZM11 3.14258L10.6 3.14253V3.14258H11ZM11.6279 1.62793L11.9107 1.91089L11.9109 1.91065L11.6279 1.62793ZM12.9307 1.01074L12.9104 0.611255L12.9007 0.611746L12.8911 0.612707L12.9307 1.01074ZM6.69238 18.1426V17.7426H6.30468L6.29258 18.1301L6.69238 18.1426ZM6.08691 37.5234L5.68711 37.5109L5.68711 37.5111L6.08691 37.5234ZM6.64551 38.9668L6.9328 38.6885L6.93274 38.6884L6.64551 38.9668ZM8.07129 39.5713L8.07102 39.9713H8.07129V39.5713ZM8.21387 39.5713L8.21571 39.1713H8.21387V39.5713ZM9.64258 38.9678L9.35567 38.689L9.35444 38.6903L9.64258 38.9678ZM10.1992 37.5234L9.79941 37.5359L9.79947 37.5376L10.1992 37.5234ZM9.59375 18.1426L9.99356 18.1301L9.98145 17.7426H9.59375V18.1426ZM23.8574 2.42871L23.8575 2.02871H23.8574V2.42871ZM18.1426 9.57129L17.7426 9.57129V9.57129H18.1426ZM22 16.0586L22.1602 15.6921L22.1587 15.6914L22 16.0586ZM22.4287 16.7354L22.8285 16.7474L22.8285 16.7473L22.4287 16.7354ZM21.8008 37.5254L21.401 37.5133L21.401 37.5135L21.8008 37.5254ZM22.3613 38.9678L22.0742 39.2462L22.0742 39.2463L22.3613 38.9678ZM23.7861 39.5713L23.7859 39.9713H23.7861V39.5713ZM23.9287 39.5713L23.9289 39.1713H23.9287V39.5713ZM25.3545 38.9688L25.0677 38.6899L25.0675 38.6901L25.3545 38.9688ZM25.916 37.5254L26.3158 37.5135L26.3158 37.5133L25.916 37.5254ZM25.3066 17.4277L25.7065 17.4156L25.6947 17.0277H25.3066V17.4277ZM23.8574 17.4277H23.4574V17.8277H23.8574V17.4277ZM23.8574 16V15.6H23.4574V16H23.8574ZM25.8262 16V16.4H25.9135L25.9928 16.3636L25.8262 16ZM29.5713 9.57129H29.9713V9.57129L29.5713 9.57129ZM34.7314 37.4756L34.3321 37.4535L34.3321 37.4536L34.7314 37.4756ZM35.2715 38.9502L34.9808 39.225L34.9811 39.2253L35.2715 38.9502ZM36.7139 39.5713L36.7159 39.1713H36.7139L36.7139 39.5713ZM38.1602 38.9502L37.8708 38.674L37.8684 38.6766L38.1602 38.9502ZM38.7002 37.4756L38.3008 37.4978L38.3009 37.4991L38.7002 37.4756ZM38.1816 28.1416L38.581 28.1194L38.56 27.7416H38.1816V28.1416ZM35.2471 28.1416V27.7416H34.8686L34.8477 28.1195L35.2471 28.1416ZM39.5713 2.42871H39.9713V2.02871H39.5713V2.42871ZM33.8564 18.8564H33.4564H33.8564ZM33.8564 26.7139H33.4564V27.1139H33.8564V26.7139ZM39.5713 26.7139V27.1139H39.9713V26.7139H39.5713ZM37.4287 21.7139V22.1139H37.8287V21.7139H37.4287ZM36 21.7139H35.6V22.1139H36V21.7139ZM36 18.1426V17.7426H35.6V18.1426H36ZM37.4287 18.1426H37.8287V17.7426H37.4287V18.1426ZM2.42871 12.4287V12.0287H2.02871V12.4287H2.42871ZM2.42871 16.7148H2.02871V17.1148H2.42871V16.7148ZM13.8574 16.7148V17.1148H14.2574V16.7148H13.8574ZM13.8574 12.4287H14.2574V12.0287H13.8574V12.4287ZM37.4287 16.7139V17.1139H37.8287V16.7139H37.4287ZM36 16.7139H35.6V17.1139H36V16.7139ZM36 15.2852V14.8852H35.6V15.2852H36ZM37.4287 15.2852H37.8287V14.8852H37.4287V15.2852ZM28.1436 9.57227L28.5436 9.57228L28.5436 9.17227H28.1436V9.57227ZM25.5127 14.5352L25.1343 14.6648L25.2614 15.0358L25.6348 14.9161L25.5127 14.5352ZM25.0498 13.1836L24.9073 12.8099L24.5462 12.9476L24.6714 13.3132L25.0498 13.1836ZM26.7148 9.57227V9.17227H26.3149L26.3148 9.57225L26.7148 9.57227ZM37.4287 13.8574V14.2574H37.8287V13.8574H37.4287ZM36 13.8574H35.6V14.2574H36V13.8574ZM36 12.4287V12.0287H35.6V12.4287H36ZM37.4287 12.4287H37.8287V12.0287H37.4287V12.4287ZM3.14258 2.42871V2.02871H3.14245L3.14258 2.42871ZM2.42871 3.14258L2.02871 3.14244V3.14258H2.42871ZM2.42871 11H2.02871V11.4H2.42871V11ZM3.85742 11V11.4H4.25742V11H3.85742ZM3.85742 3.14258H4.25742V3.14244L3.85742 3.14258ZM8.14258 2.42871V2.02871H8.14244L8.14258 2.42871ZM7.42871 3.14258L7.02871 3.14244V3.14258H7.42871ZM7.42871 11H7.02871V11.4H7.42871V11ZM8.85742 11V11.4H9.25742V11H8.85742ZM8.85742 3.14258H9.25742V3.14244L8.85742 3.14258ZM13.1426 2.42871V2.02871L13.1424 2.02871L13.1426 2.42871ZM12.4287 11H12.0287V11.4H12.4287V11ZM13.8574 11V11.4H14.2574V11H13.8574ZM23.8574 1L23.8574 1.4C27.5096 1.40029 30.6 4.99547 30.6 9.57227H31H31.4C31.4 4.69648 28.0819 0.600338 23.8575 0.6L23.8574 1ZM31 9.57227L30.6 9.57225C30.5999 12.8113 29.0409 15.5217 26.5456 16.8044L26.7285 17.1602L26.9114 17.5159C29.7102 16.0772 31.3999 13.0671 31.4 9.57228L31 9.57227ZM26.7285 17.1602L26.3287 17.1722L26.941 37.4935L27.3408 37.4814L27.7406 37.4694L27.1283 17.1481L26.7285 17.1602ZM27.3408 37.4814L26.941 37.4937C26.966 38.3084 26.6593 39.0992 26.0918 39.6844L26.3789 39.9629L26.666 40.2414C27.3842 39.5009 27.7723 38.5003 27.7406 37.4692L27.3408 37.4814ZM26.3789 39.9629L26.0918 39.6844C25.5242 40.2696 24.7437 40.6 23.9287 40.6L23.9287 41L23.9287 41.4C24.9602 41.3999 25.9478 40.9818 26.666 40.2414L26.3789 39.9629ZM23.9287 41V40.6H23.7861V41V41.4H23.9287V41ZM23.7861 41L23.7857 40.6C22.9701 40.601 22.188 40.2704 21.62 39.6853L21.333 39.9639L21.046 40.2425C21.7647 40.9829 22.7542 41.4012 23.7866 41.4L23.7861 41ZM21.333 39.9639L21.6201 39.6853C21.0877 39.1367 20.7853 38.4079 20.77 37.6473L20.3701 37.6553L19.9702 37.6633C19.9895 38.6258 20.3721 39.548 21.0459 40.2424L21.333 39.9639ZM20.3701 37.6553L20.7701 37.6575L20.7711 37.4847L20.3711 37.4824L19.9711 37.4802L19.9701 37.653L20.3701 37.6553ZM20.3711 37.4824L20.7709 37.4945L21.3852 17.1722L20.9854 17.1602L20.5855 17.1481L19.9713 37.4703L20.3711 37.4824ZM20.9854 17.1602L21.1682 16.8044C18.6733 15.5218 17.1148 12.8106 17.1148 9.57129H16.7148H16.3148C16.3148 13.0661 18.0038 16.0771 20.8025 17.5159L20.9854 17.1602ZM16.7148 9.57129L17.1148 9.57129C17.1149 5.14009 20.0153 1.62344 23.5146 1.41L23.4902 1.01074L23.4659 0.611484C19.4278 0.857779 16.3149 4.84486 16.3148 9.57128L16.7148 9.57129ZM23.4902 1.01074L23.5019 1.41057L23.8691 1.39983L23.8574 1L23.8457 0.600171L23.4785 0.610913L23.4902 1.01074ZM40.2852 1V1.4C40.3691 1.4 40.4498 1.43348 40.5082 1.49186L40.791 1.20898L41.0738 0.926106C40.8643 0.716612 40.5797 0.6 40.2852 0.6V1ZM40.791 1.20898L40.5078 1.49145C40.5665 1.5503 40.6 1.63127 40.6 1.71484H41H41.4C41.4 1.41988 41.2828 1.13563 41.0742 0.92652L40.791 1.20898ZM41 1.71484H40.6V27.4287H41H41.4V1.71484H41ZM41 27.4287L40.6 27.4286C40.6 27.5116 40.5667 27.592 40.5077 27.6512L40.791 27.9336L41.0743 28.216C41.2823 28.0074 41.3999 27.7241 41.4 27.4289L41 27.4287ZM40.791 27.9336L40.5082 27.6508C40.4498 27.7091 40.3692 27.7426 40.2852 27.7426V28.1426V28.5426C40.5797 28.5426 40.8643 28.426 41.0739 28.2164L40.791 27.9336ZM40.2852 28.1426V27.7426H39.6123V28.1426V28.5426H40.2852V28.1426ZM39.6123 28.1426L39.2129 28.1646L39.7237 37.4176L40.123 37.3955L40.5224 37.3735L40.0117 28.1205L39.6123 28.1426ZM40.123 37.3955L39.7237 37.4177C39.7697 38.245 39.473 39.0547 38.9037 39.6568L39.1943 39.9316L39.485 40.2064C40.2051 39.4447 40.5807 38.4203 40.5224 37.3733L40.123 37.3955ZM39.1943 39.9316L38.9038 39.6567C38.3341 40.2586 37.5423 40.6 36.7139 40.6V41V41.4C37.7626 41.4 38.7643 40.9679 39.4848 40.2066L39.1943 39.9316ZM36.7139 41L36.7134 40.6C35.8849 40.6009 35.0918 40.2595 34.5219 39.6576L34.2314 39.9326L33.941 40.2077C34.6619 40.9689 35.6652 41.4012 36.7143 41.4L36.7139 41ZM34.2314 39.9326L34.522 39.6577C33.988 39.0932 33.6936 38.3459 33.6969 37.573L33.2969 37.5713L32.8969 37.5696C32.8928 38.5479 33.2652 39.4933 33.9409 40.2075L34.2314 39.9326ZM33.2969 37.5713L33.6967 37.5824L33.7016 37.4066L33.3018 37.3955L32.9019 37.3844L32.897 37.5602L33.2969 37.5713ZM33.3018 37.3955L33.7011 37.4177L34.2158 28.1648L33.8164 28.1426L33.417 28.1204L32.9024 37.3733L33.3018 37.3955ZM33.8164 28.1426V27.7426H33.1426V28.1426V28.5426H33.8164V28.1426ZM33.1426 28.1426L33.1427 27.7426C33.0592 27.7426 32.9792 27.7094 32.9205 27.6507L32.6377 27.9336L32.3549 28.2165C32.564 28.4256 32.8476 28.5425 33.1425 28.5426L33.1426 28.1426ZM32.6377 27.9336L32.9205 27.6508C32.8619 27.5921 32.8287 27.5121 32.8287 27.4286L32.4287 27.4287L32.0287 27.4289C32.0288 27.7236 32.1457 28.0072 32.3548 28.2164L32.6377 27.9336ZM32.4287 27.4287H32.8287V18.8574H32.4287H32.0287V27.4287H32.4287ZM32.4287 18.8574H32.8287C32.8287 11.0011 33.7333 6.62233 35.0277 4.2174C35.6689 3.0261 36.3989 2.33216 37.1532 1.93045C37.911 1.52689 38.7274 1.4 39.5713 1.4V1V0.6C38.6492 0.6 37.6898 0.738323 36.7772 1.22434C35.8611 1.71219 35.0262 2.53216 34.3233 3.83825C32.9294 6.42812 32.0287 10.978 32.0287 18.8574H32.4287ZM39.5713 1V1.4H40.2852V1V0.6H39.5713V1ZM13.1426 1V1.4C13.6044 1.4 14.0477 1.58378 14.3743 1.91066L14.6572 1.62793L14.9402 1.3452C14.4636 0.86827 13.8169 0.6 13.1426 0.6V1ZM14.6572 1.62793L14.3745 1.91089C14.7013 2.23746 14.8851 2.68039 14.8852 3.14263L15.2852 3.14258L15.6852 3.14253C15.6851 2.46791 15.4169 1.82148 14.94 1.34497L14.6572 1.62793ZM15.2852 3.14258H14.8852V17.4287H15.2852H15.6852V3.14258H15.2852ZM15.2852 17.4287L14.8852 17.4286C14.8851 17.5124 14.852 17.592 14.7933 17.6508L15.0762 17.9336L15.359 18.2164C15.5681 18.0073 15.6851 17.7241 15.6852 17.4289L15.2852 17.4287ZM15.0762 17.9336L14.7934 17.6507C14.7346 17.7094 14.6547 17.7426 14.5712 17.7426L14.5713 18.1426L14.5714 18.5426C14.8663 18.5425 15.1498 18.4256 15.359 18.2165L15.0762 17.9336ZM14.5713 18.1426V17.7426H11.0225V18.1426V18.5426H14.5713V18.1426ZM11.0225 18.1426L10.6227 18.1551L11.2271 37.491L11.627 37.4785L12.0268 37.466L11.4223 18.1301L11.0225 18.1426ZM11.627 37.4785L11.2271 37.4909C11.2524 38.3061 10.9462 39.0969 10.3787 39.6826L10.666 39.9609L10.9533 40.2393C11.6713 39.4982 12.0587 38.4977 12.0268 37.4661L11.627 37.4785ZM10.666 39.9609L10.3788 39.6825C9.81091 40.2683 9.03002 40.599 8.21387 40.599V40.999V41.399C9.24656 41.399 10.2347 40.9805 10.9532 40.2394L10.666 39.9609ZM8.21387 40.999V40.599H8.07129V40.999V41.399H8.21387V40.999ZM8.07129 40.999V40.599C7.25543 40.599 6.47397 40.2682 5.90639 39.6826L5.61914 39.9609L5.33189 40.2393C6.05025 40.9806 7.03903 41.399 8.07129 41.399V40.999ZM5.61914 39.9609L5.90643 39.6826C5.33896 39.0969 5.03246 38.306 5.05801 37.4911L4.6582 37.4785L4.2584 37.466C4.22605 38.4978 4.61405 39.4983 5.33185 40.2393L5.61914 39.9609ZM4.6582 37.4785L5.05801 37.491L5.6625 18.1551L5.2627 18.1426L4.86289 18.1301L4.2584 37.466L4.6582 37.4785ZM5.2627 18.1426V17.7426H1.71387V18.1426V18.5426H5.2627V18.1426ZM1.71387 18.1426L1.71412 17.7426C1.63022 17.7425 1.55044 17.7094 1.49183 17.6508L1.20898 17.9336L0.92614 18.2164C1.13528 18.4256 1.4186 18.5424 1.71361 18.5426L1.71387 18.1426ZM1.20898 17.9336L1.49189 17.6508C1.43314 17.592 1.40003 17.5123 1.4 17.4286L1 17.4287L0.6 17.4289C0.600105 17.7241 0.717127 18.0073 0.926079 18.2164L1.20898 17.9336ZM1 17.4287H1.4V3.14258H1H0.6V17.4287H1ZM1 3.14258L1.4 3.14263C1.40008 2.52011 1.73232 1.94482 2.27135 1.63348L2.07129 1.28711L1.87123 0.940734C1.08486 1.39493 0.60011 2.23419 0.6 3.14253L1 3.14258ZM2.07129 1.28711L2.27127 1.63353C2.81052 1.32223 3.47451 1.32225 4.01393 1.63356L4.21387 1.28711L4.4138 0.940662C3.62699 0.486592 2.65812 0.486467 1.8713 0.94069L2.07129 1.28711ZM4.21387 1.28711L4.0139 1.63354C4.55347 1.945 4.88606 2.52029 4.88613 3.14263L5.28613 3.14258L5.68613 3.14253C5.68602 2.23388 5.20049 1.39477 4.41384 0.940682L4.21387 1.28711ZM5.28613 3.14258H4.88613V11H5.28613H5.68613V3.14258H5.28613ZM5.28613 11V11.4H6V11V10.6H5.28613V11ZM6 11H6.4V3.14258H6H5.6V11H6ZM6 3.14258L6.4 3.14263C6.40007 2.52007 6.73213 1.94482 7.2713 1.63351L7.07129 1.28711L6.87128 0.940704C6.08455 1.39495 5.60011 2.23429 5.6 3.14253L6 3.14258ZM7.07129 1.28711L7.27127 1.63353C7.81048 1.32225 8.47452 1.32229 9.01395 1.63357L9.21387 1.28711L9.41379 0.940653C8.62701 0.486651 7.65811 0.486476 6.8713 0.94069L7.07129 1.28711ZM9.21387 1.28711L9.01382 1.63349C9.5532 1.94501 9.88606 2.52039 9.88613 3.14263L10.2861 3.14258L10.6861 3.14253C10.686 2.23378 10.2001 1.39476 9.41392 0.940729L9.21387 1.28711ZM10.2861 3.14258H9.88613V11H10.2861H10.6861V3.14258H10.2861ZM10.2861 11V11.4H11V11V10.6H10.2861V11ZM11 11H11.4V3.14258H11H10.6V11H11ZM11 3.14258L11.4 3.14263C11.4001 2.68047 11.5838 2.23744 11.9107 1.91089L11.6279 1.62793L11.3452 1.34497C10.8683 1.82146 10.6001 2.46799 10.6 3.14253L11 3.14258ZM11.6279 1.62793L11.9109 1.91065C12.1965 1.62478 12.5713 1.44846 12.9703 1.40878L12.9307 1.01074L12.8911 0.612707C12.309 0.670611 11.7619 0.927894 11.345 1.34521L11.6279 1.62793ZM12.9307 1.01074L12.9509 1.41023L13.1628 1.39949L13.1426 1L13.1223 0.600513L12.9104 0.611255L12.9307 1.01074ZM6.69238 18.1426L6.29258 18.1301L5.68711 37.5109L6.08691 37.5234L6.48672 37.5359L7.09219 18.1551L6.69238 18.1426ZM6.08691 37.5234L5.68711 37.5111C5.66716 38.1562 5.90883 38.7815 6.35828 39.2452L6.64551 38.9668L6.93274 38.6884C6.63412 38.3803 6.47346 37.9649 6.48672 37.5358L6.08691 37.5234ZM6.64551 38.9668L6.35821 39.2451C6.8074 39.7088 7.42548 39.9709 8.07102 39.9713L8.07129 39.5713L8.07155 39.1713C7.64244 39.171 7.23146 38.9968 6.9328 38.6885L6.64551 38.9668ZM8.07129 39.5713V39.9713H8.21387V39.5713V39.1713H8.07129V39.5713ZM8.21387 39.5713L8.21202 39.9713C8.85987 39.9743 9.48122 39.712 9.93072 39.2452L9.64258 38.9678L9.35444 38.6903C9.05682 38.9994 8.64512 39.1733 8.21571 39.1713L8.21387 39.5713ZM9.64258 38.9678L9.92948 39.2465C10.38 38.7828 10.6219 38.1556 10.599 37.5092L10.1992 37.5234L9.79947 37.5376C9.81468 37.9659 9.6544 38.3816 9.35568 38.689L9.64258 38.9678ZM10.1992 37.5234L10.599 37.5109L9.99356 18.1301L9.59375 18.1426L9.19394 18.1551L9.79941 37.5359L10.1992 37.5234ZM9.59375 18.1426V17.7426H6.69238V18.1426V18.5426H9.59375V18.1426ZM23.8574 2.42871V2.02871C20.4073 2.02871 17.7426 5.4997 17.7426 9.57129L18.1426 9.57129L18.5426 9.57129C18.5426 5.76589 21.0063 2.82871 23.8574 2.82871V2.42871ZM18.1426 9.57129H17.7426C17.7426 12.6731 19.2896 15.3229 21.8413 16.4258L22 16.0586L22.1587 15.6914C19.9509 14.7371 18.5426 12.4134 18.5426 9.57129H18.1426ZM22 16.0586L21.8398 16.4251C21.9581 16.4768 22.0327 16.5947 22.0289 16.7234L22.4287 16.7354L22.8285 16.7473C22.8421 16.2916 22.5773 15.8744 22.1602 15.6921L22 16.0586ZM22.4287 16.7354L22.0289 16.7233L21.401 37.5133L21.8008 37.5254L22.2006 37.5375L22.8285 16.7474L22.4287 16.7354ZM21.8008 37.5254L21.401 37.5135C21.3818 38.1586 21.6257 38.7837 22.0742 39.2462L22.3613 38.9678L22.6485 38.6893C22.3499 38.3813 22.1879 37.9654 22.2006 37.5373L21.8008 37.5254ZM22.3613 38.9678L22.0742 39.2463C22.5234 39.7093 23.1409 39.9709 23.7859 39.9713L23.7861 39.5713L23.7864 39.1713C23.3577 39.171 22.9471 38.9971 22.6484 38.6893L22.3613 38.9678ZM23.7861 39.5713V39.9713H23.9287V39.5713V39.1713H23.7861V39.5713ZM23.9287 39.5713L23.9285 39.9713C24.5739 39.9717 25.1919 39.7104 25.6415 39.2474L25.3545 38.9688L25.0675 38.6901C24.7686 38.9979 24.3579 39.1715 23.9289 39.1713L23.9287 39.5713ZM25.3545 38.9688L25.6413 39.2476C26.0913 38.7848 26.335 38.1592 26.3158 37.5135L25.916 37.5254L25.5162 37.5373C25.5289 37.9662 25.367 38.3821 25.0677 38.6899L25.3545 38.9688ZM25.916 37.5254L26.3158 37.5133L25.7065 17.4156L25.3066 17.4277L24.9068 17.4399L25.5162 37.5375L25.916 37.5254ZM25.3066 17.4277V17.0277H23.8574V17.4277V17.8277H25.3066V17.4277ZM23.8574 17.4277H24.2574V16H23.8574H23.4574V17.4277H23.8574ZM23.8574 16V16.4H25.8262V16V15.6H23.8574V16ZM25.8262 16L25.9928 16.3636C28.469 15.229 29.9713 12.6242 29.9713 9.57129H29.5713H29.1713C29.1713 12.3667 27.8043 14.6536 25.6595 15.6364L25.8262 16ZM29.5713 9.57129L29.9713 9.57129C29.9713 5.49984 27.3074 2.02902 23.8575 2.02871L23.8574 2.42871L23.8574 2.82871C26.7083 2.82896 29.1713 5.76592 29.1713 9.57129L29.5713 9.57129ZM34.7314 37.4756L34.3321 37.4536C34.296 38.1082 34.5304 38.7486 34.9808 39.225L35.2715 38.9502L35.5621 38.6754C35.2627 38.3587 35.1068 37.933 35.1308 37.4976L34.7314 37.4756ZM35.2715 38.9502L34.9811 39.2253C35.4317 39.701 36.0584 39.9712 36.7138 39.9713L36.7139 39.5713L36.7139 39.1713C36.2786 39.1713 35.8618 38.9917 35.5619 38.6751L35.2715 38.9502ZM36.7139 39.5713L36.7118 39.9713C37.3703 39.9747 38.0013 39.7043 38.4519 39.2238L38.1602 38.9502L37.8684 38.6766C37.5705 38.9942 37.1527 39.1736 36.7159 39.1713L36.7139 39.5713ZM38.1602 38.9502L38.4495 39.2264C38.9035 38.7506 39.1382 38.1074 39.0995 37.452L38.7002 37.4756L38.3009 37.4991C38.3265 37.9338 38.1709 38.3596 37.8708 38.674L38.1602 38.9502ZM38.7002 37.4756L39.0996 37.4534L38.581 28.1194L38.1816 28.1416L37.7823 28.1638L38.3008 37.4978L38.7002 37.4756ZM38.1816 28.1416V27.7416H35.2471V28.1416V28.5416H38.1816V28.1416ZM35.2471 28.1416L34.8477 28.1195L34.3321 37.4535L34.7314 37.4756L35.1308 37.4977L35.6465 28.1637L35.2471 28.1416ZM39.5713 2.42871V2.02871C38.4796 2.02871 37.5255 2.36678 36.7235 3.0767C35.9308 3.77844 35.3113 4.82149 34.8341 6.1929C33.8825 8.92809 33.4565 13.0927 33.4564 18.8564H33.8564H34.2564C34.2565 13.1049 34.6852 9.05562 35.5897 6.45578C36.0407 5.15967 36.5995 4.2549 37.2538 3.67571C37.8989 3.10469 38.6604 2.82871 39.5713 2.82871V2.42871ZM33.8564 18.8564H33.4564V26.7139H33.8564H34.2564V18.8564H33.8564ZM33.8564 26.7139V27.1139H39.5713V26.7139V26.3139H33.8564V26.7139ZM39.5713 26.7139H39.9713V2.42871H39.5713H39.1713V26.7139H39.5713ZM37.4287 21.7139V21.3139H36V21.7139V22.1139H37.4287V21.7139ZM36 21.7139H36.4V18.1426H36H35.6V21.7139H36ZM36 18.1426V18.5426H37.4287V18.1426V17.7426H36V18.1426ZM37.4287 18.1426H37.0287V21.7139H37.4287H37.8287V18.1426H37.4287ZM2.42871 12.4287H2.02871V16.7148H2.42871H2.82871V12.4287H2.42871ZM2.42871 16.7148V17.1148H13.8574V16.7148V16.3148H2.42871V16.7148ZM13.8574 16.7148H14.2574V12.4287H13.8574H13.4574V16.7148H13.8574ZM13.8574 12.4287V12.0287H2.42871V12.4287V12.8287H13.8574V12.4287ZM37.4287 16.7139V16.3139H36V16.7139V17.1139H37.4287V16.7139ZM36 16.7139H36.4V15.2852H36H35.6V16.7139H36ZM36 15.2852V15.6852H37.4287V15.2852V14.8852H36V15.2852ZM37.4287 15.2852H37.0287V16.7139H37.4287H37.8287V15.2852H37.4287ZM28.1436 9.57227L27.7436 9.57225C27.7435 11.4986 27.1454 12.6347 26.57 13.289C26.2791 13.6198 25.987 13.8354 25.7649 13.9692C25.6538 14.0361 25.5606 14.0823 25.4943 14.1121C25.4272 14.1422 25.3894 14.1546 25.3906 14.1543L25.5127 14.5352L25.6348 14.9161C25.7388 14.8827 26.4665 14.6181 27.1707 13.8173C27.8825 13.0079 28.5435 11.6807 28.5436 9.57228L28.1436 9.57227ZM25.5127 14.5352L25.8911 14.4056L25.4282 13.054L25.0498 13.1836L24.6714 13.3132L25.1343 14.6648L25.5127 14.5352ZM25.0498 13.1836L25.1923 13.5573C25.2773 13.5249 25.7637 13.3229 26.2281 12.7176C26.6954 12.1085 27.1148 11.1243 27.1148 9.57228L26.7148 9.57227L26.3148 9.57225C26.3148 10.9723 25.9397 11.7793 25.5934 12.2306C25.4183 12.4588 25.2446 12.6042 25.1161 12.6922C25.0517 12.7362 24.9985 12.766 24.962 12.7846C24.9437 12.7938 24.9297 12.8003 24.9205 12.8043C24.9159 12.8063 24.9125 12.8078 24.9104 12.8086C24.9083 12.8095 24.9073 12.8099 24.9073 12.8099L25.0498 13.1836ZM26.7148 9.57227V9.97227H28.1436V9.57227V9.17227H26.7148V9.57227ZM37.4287 13.8574V13.4574H36V13.8574V14.2574H37.4287V13.8574ZM36 13.8574H36.4V12.4287H36H35.6V13.8574H36ZM36 12.4287V12.8287H37.4287V12.4287V12.0287H36V12.4287ZM37.4287 12.4287H37.0287V13.8574H37.4287H37.8287V12.4287H37.4287ZM3.14258 2.42871L3.14245 2.02871C2.52732 2.02891 2.02893 2.52735 2.02871 3.14244L2.42871 3.14258L2.82871 3.14272C2.82877 2.96921 2.96923 2.82877 3.14271 2.82871L3.14258 2.42871ZM2.42871 3.14258H2.02871V11H2.42871H2.82871V3.14258H2.42871ZM2.42871 11V11.4H3.85742V11V10.6H2.42871V11ZM3.85742 11H4.25742V3.14258H3.85742H3.45742V11H3.85742ZM3.85742 3.14258L4.25742 3.14244C4.2572 2.52668 3.75733 2.02871 3.14258 2.02871V2.42871V2.82871C3.31664 2.82871 3.45736 2.96972 3.45742 3.14272L3.85742 3.14258ZM8.14258 2.42871L8.14244 2.02871C7.52734 2.02892 7.02893 2.52734 7.02871 3.14244L7.42871 3.14258L7.82871 3.14272C7.82877 2.96922 7.96923 2.82877 8.14271 2.82871L8.14258 2.42871ZM7.42871 3.14258H7.02871V11H7.42871H7.82871V3.14258H7.42871ZM7.42871 11V11.4H8.85742V11V10.6H7.42871V11ZM8.85742 11H9.25742V3.14258H8.85742H8.45742V11H8.85742ZM8.85742 3.14258L9.25742 3.14244C9.2572 2.52668 8.75733 2.02871 8.14258 2.02871V2.42871V2.82871C8.31664 2.82871 8.45736 2.96972 8.45742 3.14272L8.85742 3.14258ZM13.1426 2.42871L13.1424 2.02871C12.5268 2.029 12.0287 2.52878 12.0287 3.14355H12.4287H12.8287C12.8287 2.96956 12.9697 2.82879 13.1428 2.82871L13.1426 2.42871ZM12.4287 3.14355H12.0287V11H12.4287H12.8287V3.14355H12.4287ZM12.4287 11V11.4H13.8574V11V10.6H12.4287V11ZM13.8574 11H14.2574V3.14355H13.8574H13.4574V11H13.8574ZM13.8574 3.14355H14.2574C14.2574 2.52814 13.758 2.02871 13.1426 2.02871V2.42871V2.82871C13.3162 2.82871 13.4574 2.96997 13.4574 3.14355H13.8574Z" fill="white" mask="url(#path-1-outside-1_15_248)"/>
</svg>
