<svg width="35" height="35" viewBox="0 0 35 35" fill="none" xmlns="http://www.w3.org/2000/svg">
<path d="M11.5166 1.48926C13.4833 1.41892 15.1614 2.31061 16.0967 3.53613L16.2861 3.80371L18.3447 6.96777L18.4629 7.16016C19.5862 9.09496 18.8514 11.2624 17.1494 12.6377L16.9766 12.7725C16.0146 13.4918 15.0874 14.2833 14.5234 14.9697C15.0822 17.0512 16.9458 19.1648 18.7021 20.748L18.7402 20.7715C18.7579 20.7798 18.7808 20.7874 18.8086 20.793C18.8638 20.8039 18.9229 20.8018 18.9746 20.7881L18.9863 20.7852L23.0439 19.8115L23.4883 19.7197C24.5332 19.5375 25.6258 19.5818 26.6455 19.8525C27.8099 20.1618 28.8369 20.7547 29.5625 21.5654L32.499 24.8477V24.8486L32.6602 25.0381C33.3902 25.95 33.8015 27.1844 33.2852 28.4258L33.1602 28.6914C32.6201 29.7197 31.6027 31.1837 29.7959 32.2354L29.4238 32.4395C27.4332 33.4719 24.7939 33.8801 21.4492 33.1309L20.7705 32.9648C16.9184 31.949 13.2972 29.5087 10.251 26.3916L9.64941 25.7598C6.66072 22.5322 4.16889 18.5533 2.55762 14.373L2.24707 13.5352C1.48407 11.3862 1.31708 9.54284 1.64258 7.97754C1.96957 6.40551 2.78554 5.15389 3.91504 4.18359L4.11914 4.01367C6.25837 2.29468 9.17464 1.72081 11.0908 1.51855H11.0918L11.5166 1.48926ZM13.1396 5.24316C12.7841 4.69737 12.1445 4.42222 11.5459 4.48535L11.5469 4.48633C9.94076 4.65612 8.04688 5.09209 6.74219 6.06934L6.48926 6.27246C5.88602 6.79092 5.38157 7.49828 5.1709 8.49902C4.95863 9.50776 5.03597 10.8593 5.67969 12.6738L5.96582 13.4492C7.45561 17.3108 9.75799 20.9785 12.4844 23.9219L13.0381 24.5039C15.8263 27.3554 18.9101 29.3363 21.8613 30.1143L22.376 30.2402C24.7217 30.7694 26.2659 30.4834 27.3066 30.0049L27.5215 29.8994C28.7115 29.2813 29.4545 28.2933 29.8828 27.4785L29.9082 27.416C29.9524 27.2792 29.9436 27.0661 29.7451 26.79L29.6289 26.6465L26.6924 23.3643C26.4293 23.0702 26.0325 22.831 25.5479 22.7021C25.1245 22.5897 24.6672 22.5707 24.2314 22.6465L24.0459 22.6846L19.9883 23.6592C18.7282 23.9616 17.2875 23.7388 16.2783 22.959L16.082 22.7959C14.1956 21.0974 11.6923 18.4115 10.9756 15.4268V15.4277C10.8062 14.7352 10.9761 14.0297 11.4189 13.4531L11.4199 13.4521L11.5781 13.2539C12.3965 12.2638 13.5781 11.2915 14.5781 10.543L14.7344 10.417C15.4247 9.81977 15.5572 9.08763 15.2676 8.52441L15.1992 8.40625L13.1396 5.24316Z" fill="black" stroke="black" stroke-width="1.03"/>
</svg>
