<svg width="46" height="46" viewBox="0 0 46 46" fill="none" xmlns="http://www.w3.org/2000/svg">
<path fill-rule="evenodd" clip-rule="evenodd" d="M10.0624 5.75H15.9849C17.132 5.74999 18.2318 6.20697 19.0411 7.01987C19.8504 7.83277 20.3025 8.9346 20.2974 10.0817V15.985C20.2974 18.3667 18.3666 20.2975 15.9849 20.2975H10.0624C7.68069 20.2975 5.74992 18.3667 5.74992 15.985V10.0817C5.74482 8.9346 6.19692 7.83277 7.00623 7.01987C7.81553 6.20697 8.91535 5.74999 10.0624 5.75ZM15.9849 17.4033C16.7745 17.393 17.4121 16.7554 17.4224 15.9658V10.0817C17.4224 9.28776 16.7788 8.64417 15.9849 8.64417H10.0624C9.26851 8.64417 8.62492 9.28776 8.62492 10.0817V15.9658C8.63524 16.7554 9.27283 17.393 10.0624 17.4033H15.9849Z" fill="black"/>
<path fill-rule="evenodd" clip-rule="evenodd" d="M30.015 5.75H35.9375C37.0845 5.74999 38.1843 6.20697 38.9937 7.01987C39.803 7.83277 40.2551 8.9346 40.25 10.0817V15.985C40.25 18.3667 38.3192 20.2975 35.9375 20.2975H30.015C27.6332 20.2975 25.7025 18.3667 25.7025 15.985V10.0625C25.7025 7.68077 27.6332 5.75 30.015 5.75ZM35.9375 17.4033C36.7271 17.393 37.3646 16.7554 37.375 15.9658V10.0817C37.375 9.28776 36.7314 8.64417 35.9375 8.64417H30.015C29.2211 8.64417 28.5775 9.28776 28.5775 10.0817V15.9658C28.5878 16.7554 29.2254 17.393 30.015 17.4033H35.9375Z" fill="black"/>
<path fill-rule="evenodd" clip-rule="evenodd" d="M10.0624 25.7025H15.9849C18.3666 25.7025 20.2974 27.6333 20.2974 30.015V35.9375C20.2974 38.3192 18.3666 40.25 15.9849 40.25H10.0624C8.91535 40.25 7.81553 39.793 7.00623 38.9801C6.19692 38.1672 5.74482 37.0654 5.74992 35.9183V30.015C5.74992 27.6333 7.68069 25.7025 10.0624 25.7025ZM15.9849 37.3558C16.7788 37.3558 17.4224 36.7122 17.4224 35.9183V30.015C17.4121 29.2254 16.7745 28.5878 15.9849 28.5775H10.0624C9.27283 28.5878 8.63524 29.2254 8.62492 30.015V35.9183C8.62492 36.7122 9.26851 37.3558 10.0624 37.3558H15.9849Z" fill="black"/>
<path fill-rule="evenodd" clip-rule="evenodd" d="M30.0149 25.7025H35.9374C38.3191 25.7025 40.2499 27.6333 40.2499 30.015V35.9183C40.255 37.0654 39.8029 38.1672 38.9936 38.9801C38.1843 39.793 37.0845 40.25 35.9374 40.25H30.0149C28.8678 40.25 27.768 39.793 26.9587 38.9801C26.1494 38.1672 25.6973 37.0654 25.7024 35.9183V30.015C25.7024 27.6333 27.6332 25.7025 30.0149 25.7025ZM35.9374 37.3558C36.7313 37.3558 37.3749 36.7122 37.3749 35.9183V30.015C37.3646 29.2254 36.727 28.5878 35.9374 28.5775H30.0149C29.2253 28.5878 28.5877 29.2254 28.5774 30.015V35.9183C28.5774 36.7122 29.221 37.3558 30.0149 37.3558H35.9374Z" fill="black"/>
</svg>
